<svg width="25" height="24" viewBox="0 0 25 24" fill="none" xmlns="http://www.w3.org/2000/svg">
<circle cx="12.5" cy="12" r="11.3882" stroke="white" stroke-width="1.22353"/>
<path d="M8 7.50002C8 7.10219 8.15804 6.72066 8.43935 6.43935C8.72066 6.15804 9.10219 6 9.50002 6H15.5001C15.898 6 16.2795 6.15804 16.5608 6.43935C16.8421 6.72066 17.0001 7.10219 17.0001 7.50002V17.6252C17.0001 17.693 16.9817 17.7596 16.9468 17.8178C16.9119 17.8759 16.8619 17.9236 16.8021 17.9556C16.7423 17.9876 16.675 18.0028 16.6072 17.9996C16.5395 17.9963 16.4739 17.9748 16.4174 17.9372L12.5001 15.8259L8.58276 17.9372C8.52629 17.9748 8.46068 17.9963 8.39292 17.9996C8.32517 18.0028 8.2578 17.9876 8.198 17.9556C8.1382 17.9236 8.0882 17.8759 8.05334 17.8178C8.01847 17.7596 8.00004 17.693 8 17.6252V7.50002ZM9.50002 6.75001C9.30111 6.75001 9.11034 6.82903 8.96969 6.96969C8.82903 7.11034 8.75001 7.30111 8.75001 7.50002V16.9247L12.2923 15.0631C12.3539 15.0222 12.4261 15.0003 12.5001 15.0003C12.574 15.0003 12.6463 15.0222 12.7078 15.0631L16.2501 16.9247V7.50002C16.2501 7.30111 16.1711 7.11034 16.0305 6.96969C15.8898 6.82903 15.699 6.75001 15.5001 6.75001H9.50002Z" fill="white" stroke="white" stroke-width="0.6"/>
</svg>
