<svg width="24" height="23" viewBox="0 0 24 23" fill="none" xmlns="http://www.w3.org/2000/svg">
<circle cx="11.9706" cy="11.4706" r="10.8588" stroke="white" stroke-width="1.22353"/>
<path d="M7.60078 5.7998C7.60078 5.7998 6.80078 5.7998 6.80078 6.5998V10.7262C6.80078 12.1102 7.08398 13.7998 9.60078 13.7998H10.0008V11.3998L8.00078 12.1998C8.00078 12.1998 8.00078 10.1998 10.0008 10.1998V8.9998C10.0008 8.4334 10.0704 7.9438 10.4008 7.5798C10.7056 7.2438 11.2048 6.5734 12.5256 7.203L13.2008 7.6422V6.5998C13.2008 6.5998 13.2008 5.7998 12.4008 5.7998C11.8344 5.7998 10.8184 6.5998 10.0008 6.5998C9.18318 6.5998 8.23038 5.7998 7.60078 5.7998ZM8.40078 7.3998C8.61295 7.3998 8.81644 7.48409 8.96647 7.63412C9.1165 7.78415 9.20078 7.98763 9.20078 8.1998C9.20078 8.41198 9.1165 8.61546 8.96647 8.76549C8.81644 8.91552 8.61295 8.9998 8.40078 8.9998C8.18861 8.9998 7.98512 8.91552 7.8351 8.76549C7.68507 8.61546 7.60078 8.41198 7.60078 8.1998C7.60078 7.98763 7.68507 7.78415 7.8351 7.63412C7.98512 7.48409 8.18861 7.3998 8.40078 7.3998ZM11.6008 8.1998C11.6008 8.1998 10.8008 8.1998 10.8008 8.9998V12.9998C10.8008 14.5998 11.6008 16.1998 14.0008 16.1998C16.4008 16.1998 17.2008 14.5998 17.2008 12.9998V8.9998C17.2008 8.1998 16.4008 8.1998 16.4008 8.1998C15.8344 8.1998 14.8184 8.9998 14.0008 8.9998C13.1832 8.9998 12.2304 8.1998 11.6008 8.1998ZM12.4008 9.7998C12.613 9.7998 12.8164 9.88409 12.9665 10.0341C13.1165 10.1841 13.2008 10.3876 13.2008 10.5998C13.2008 10.812 13.1165 11.0155 12.9665 11.1655C12.8164 11.3155 12.613 11.3998 12.4008 11.3998C12.1886 11.3998 11.9851 11.3155 11.8351 11.1655C11.6851 11.0155 11.6008 10.812 11.6008 10.5998C11.6008 10.3876 11.6851 10.1841 11.8351 10.0341C11.9851 9.88409 12.1886 9.7998 12.4008 9.7998ZM15.6008 9.7998C15.813 9.7998 16.0164 9.88409 16.1665 10.0341C16.3165 10.1841 16.4008 10.3876 16.4008 10.5998C16.4008 10.812 16.3165 11.0155 16.1665 11.1655C16.0164 11.3155 15.813 11.3998 15.6008 11.3998C15.3886 11.3998 15.1851 11.3155 15.0351 11.1655C14.8851 11.0155 14.8008 10.812 14.8008 10.5998C14.8008 10.3876 14.8851 10.1841 15.0351 10.0341C15.1851 9.88409 15.3886 9.7998 15.6008 9.7998ZM12.0008 12.9998H16.0008C16.0008 12.9998 16.0008 14.9998 14.0008 14.9998C12.0008 14.9998 12.0008 12.9998 12.0008 12.9998Z" fill="white"/>
</svg>
