<svg width="24" height="23" viewBox="0 0 24 23" fill="none" xmlns="http://www.w3.org/2000/svg">
<circle cx="11.9706" cy="11.4706" r="10.8588" stroke="white" stroke-width="1.22353"/>
<circle cx="9.78984" cy="8.19999" r="1.87999" stroke="white" stroke-width="0.64"/>
<circle cx="14.1893" cy="8.93346" r="1.14666" stroke="white" stroke-width="0.64"/>
<path d="M6.51748 12.3469C6.56394 12.2438 6.60507 12.1815 6.62954 12.1515C6.63605 12.1492 6.64496 12.1464 6.65671 12.1431C6.70513 12.1297 6.77695 12.1158 6.87452 12.103C7.06862 12.0777 7.3325 12.0608 7.64795 12.0516C8.27698 12.0331 9.08089 12.0453 9.87713 12.0703C10.6722 12.0953 11.4544 12.1328 12.0383 12.164C12.3301 12.1796 12.5721 12.1937 12.7411 12.2038C12.7584 12.2049 12.7749 12.2059 12.7906 12.2068C12.8032 12.2475 12.8171 12.2937 12.8318 12.3448C12.8925 12.5563 12.9658 12.8482 13.017 13.1713C13.0684 13.4957 13.096 13.8427 13.0703 14.1669C13.0444 14.493 12.9661 14.7753 12.8236 14.9891C12.7124 15.1559 12.4305 15.3165 11.9518 15.4278C11.4919 15.5348 10.9229 15.5799 10.3401 15.5799C9.75948 15.5799 9.17847 15.5352 8.70004 15.4684C8.20592 15.3995 7.86445 15.3126 7.73318 15.247C7.04418 14.9026 6.59606 14.4465 6.42449 13.9601C6.29181 13.584 6.29816 13.1651 6.373 12.8045C6.41009 12.6259 6.46258 12.4688 6.51748 12.3469Z" stroke="white" stroke-width="0.64" stroke-linecap="round" stroke-linejoin="round"/>
<circle cx="13.4548" cy="14.0666" r="2.47618" fill="#1E1E1E" stroke="#1E1E1E" stroke-width="0.914286"/>
<mask id="path-6-inside-1" fill="white">
<path fill-rule="evenodd" clip-rule="evenodd" d="M14.1872 17C15.8073 17 17.1206 15.6867 17.1206 14.0666C17.1206 12.4466 15.8073 11.1333 14.1872 11.1333C12.5672 11.1333 11.2539 12.4466 11.2539 14.0666C11.2539 15.6867 12.5672 17 14.1872 17ZM13.4895 12.8703L13.4996 15.3235L15.6924 14.2237L13.4895 12.8703Z"/>
</mask>
<path fill-rule="evenodd" clip-rule="evenodd" d="M14.1872 17C15.8073 17 17.1206 15.6867 17.1206 14.0666C17.1206 12.4466 15.8073 11.1333 14.1872 11.1333C12.5672 11.1333 11.2539 12.4466 11.2539 14.0666C11.2539 15.6867 12.5672 17 14.1872 17ZM13.4895 12.8703L13.4996 15.3235L15.6924 14.2237L13.4895 12.8703Z" fill="white"/>
<path d="M13.4996 15.3235L12.5853 15.3272L12.5914 16.8018L13.9095 16.1407L13.4996 15.3235ZM13.4895 12.8703L13.9681 12.0913L12.5685 11.2314L12.5753 12.8741L13.4895 12.8703ZM15.6924 14.2237L16.1023 15.0409L17.5706 14.3045L16.171 13.4446L15.6924 14.2237ZM16.2063 14.0666C16.2063 15.1817 15.3023 16.0857 14.1872 16.0857V17.9142C16.3122 17.9142 18.0348 16.1916 18.0348 14.0666H16.2063ZM14.1872 12.0476C15.3023 12.0476 16.2063 12.9515 16.2063 14.0666H18.0348C18.0348 11.9416 16.3122 10.219 14.1872 10.219V12.0476ZM12.1682 14.0666C12.1682 12.9515 13.0721 12.0476 14.1872 12.0476V10.219C12.0623 10.219 10.3396 11.9416 10.3396 14.0666H12.1682ZM14.1872 16.0857C13.0721 16.0857 12.1682 15.1817 12.1682 14.0666H10.3396C10.3396 16.1916 12.0623 17.9142 14.1872 17.9142V16.0857ZM14.4139 15.3197L14.4038 12.8666L12.5753 12.8741L12.5853 15.3272L14.4139 15.3197ZM15.2825 13.4064L13.0897 14.5062L13.9095 16.1407L16.1023 15.0409L15.2825 13.4064ZM13.011 13.6493L15.2138 15.0027L16.171 13.4446L13.9681 12.0913L13.011 13.6493Z" fill="white" mask="url(#path-6-inside-1)"/>
</svg>
