<svg width="70" height="47" viewBox="0 0 70 47" fill="none" xmlns="http://www.w3.org/2000/svg">
<path fill-rule="evenodd" clip-rule="evenodd" d="M27.0741 0.777152C25.1554 0.871577 21.775 1.25968 19.4997 1.64677C13.3287 2.69663 9.14666 4.19446 5.41582 6.69102C4.35643 7.39991 2.98791 8.66069 2.17531 9.67628C0.799778 11.3954 0.231338 12.765 0.0460697 14.8065C-0.0596808 15.9713 0.0115133 16.8195 0.312841 17.985C0.696931 19.4707 1.12724 20.2432 2.23576 21.4371C3.6517 22.962 4.87594 23.8589 6.0934 24.2632C6.54011 24.4115 8.85428 24.9502 9.79587 25.125C10.0222 25.1671 10.5683 25.1874 11.4414 25.1862C12.5854 25.1847 12.8718 25.1679 13.7403 25.0519C15.1364 24.8654 16.0869 24.7027 16.7894 24.5297C17.3759 24.3854 18.5977 23.9996 18.7835 23.9002C18.8648 23.8567 18.8113 23.7902 18.3041 23.3038C17.633 22.6604 16.3034 21.2012 15.9123 20.679C14.8899 19.3136 14.2053 17.595 13.8754 15.5651C13.7376 14.7172 13.7274 13.556 13.8525 12.9674C14.0466 12.0547 14.4859 10.9993 14.9909 10.2329C15.2946 9.77192 16.3717 8.7056 16.9208 8.32219C18.1222 7.48335 18.9324 7.17859 20.3951 7.01539C20.9346 6.95518 22.0741 6.95446 22.7182 7.01389C23.3987 7.07671 24.0018 7.28715 24.2819 7.55948C24.51 7.78129 24.6465 8.01065 24.7012 8.26363C24.7635 8.55252 24.3782 8.97973 23.949 9.09749C23.6437 9.18126 23.0492 9.17192 22.4036 9.07314C22.0617 9.02082 21.7164 8.99769 21.5083 9.01318C21.1528 9.0396 20.0437 9.31281 19.6069 9.48157C19.1681 9.65111 18.2787 10.1135 17.9752 10.33C17.168 10.9056 16.4578 11.8951 16.2015 12.8007C16.0607 13.2984 16.0505 14.3083 16.1751 15.4115C16.2872 16.4034 16.3627 16.7655 16.6216 17.553C17.0642 18.8993 17.627 19.8217 18.6896 20.9423C19.6511 21.9562 20.0503 22.2746 20.7844 22.6128C21.1241 22.7693 21.2199 22.7921 21.5346 22.7915C21.9905 22.7906 22.4242 22.6891 22.8267 22.489C23.0721 22.367 23.2552 22.2138 23.6559 21.7953C23.9387 21.4998 24.2427 21.1365 24.3314 20.9879C25.1811 19.5636 25.1792 17.9663 24.3269 17.2C23.8278 16.7512 23.1794 16.6699 21.9844 16.9061C20.5905 17.1816 20.1971 17.1773 19.8826 16.8836C19.7313 16.7422 19.7297 16.7359 19.7517 16.3664C19.7779 15.9288 19.8913 15.6705 20.1804 15.3899C20.3371 15.2379 20.4746 15.1705 20.9181 15.0284C21.902 14.713 22.3507 14.6449 23.4684 14.6411C24.5878 14.6372 24.8344 14.6809 25.4164 14.986C26.0324 15.309 26.4712 15.8215 26.6652 16.4448C26.9604 17.3934 26.8502 19.7674 26.4464 21.1611C26.379 21.3936 26.3239 21.6024 26.3239 21.6252C26.3239 21.6479 26.46 21.6817 26.6264 21.7002C27.2529 21.7698 28.935 22.0723 29.494 22.2159C29.8134 22.2979 30.1199 22.3758 30.175 22.389C30.2737 22.4126 30.2732 22.4044 30.1399 21.8645C29.6663 19.9462 29.4357 17.3237 29.483 14.3951C29.5058 12.9835 29.5235 12.7267 29.683 11.4947C29.7792 10.7512 29.8812 10.0564 29.9097 9.95075C30.0721 9.34766 30.445 8.81058 30.9236 8.49052C31.7389 7.94532 32.8006 7.85859 34.2304 8.22036C35.4946 8.54023 38.8928 10.0301 40.3127 10.887C41.311 11.4894 42.3376 12.2241 43.0121 12.8187C43.6645 13.3939 43.8931 13.8529 43.8918 14.5854C43.8908 15.1319 43.7886 15.5078 43.474 16.1229C42.9212 17.2036 41.8796 18.4017 40.1416 19.9558C39.6625 20.3843 38.9546 21.0399 38.5686 21.4127C37.6054 22.3428 36.98 22.8449 35.8514 23.5943L34.8877 24.2341L35.3126 24.389C36.4839 24.8164 37.621 25.1489 38.9317 25.4475C39.4108 25.5566 40.3699 25.7755 41.063 25.934C42.6121 26.2881 43.4974 26.4461 44.4733 26.5427C46.5085 26.7442 49.9113 26.7605 51.1522 26.5746C52.8999 26.3129 53.8494 25.977 54.9815 25.2201C56.9189 23.9243 58.1617 22.0969 58.6501 19.8252C59.046 17.9837 58.9429 15.7632 58.3548 13.4755C57.8955 11.6892 56.8879 9.72003 55.813 8.50659C55.4335 8.0787 54.39 7.08644 53.8901 6.67863C52.4894 5.53635 50.7268 4.52095 49.0953 3.91665C47.162 3.2006 45.2244 2.61091 43.6263 2.25228C40.3103 1.50811 37.2673 1.03071 34.8178 0.870367C32.6613 0.729141 28.955 0.684566 27.0741 0.777152ZM62.187 2.00981C61.0627 2.21826 60.2283 2.53953 59.4235 3.07365C58.7522 3.51887 58.0974 4.37203 57.866 5.10265C57.7034 5.61585 57.714 6.28845 57.8926 6.77238C58.1424 7.45025 58.7909 8.14593 59.771 8.78812C60.6407 9.35792 61.3037 9.63408 62.5984 9.96536C64.3688 10.4185 66.4707 10.2085 67.6894 9.45665C68.2213 9.12875 68.9449 8.39435 69.1457 7.97886C69.4768 7.29276 69.545 6.58174 69.3548 5.78685C69.0112 4.34895 67.6923 3.17935 65.616 2.47075C64.6374 2.1368 64.0194 2.02171 63.1066 2.00342C62.6676 1.99461 62.2538 1.99747 62.187 2.00981ZM33.8498 11.1892C33.3023 11.4177 32.9817 11.6858 32.7106 12.1421C32.276 12.8737 31.9413 15.0931 32.0132 16.7666C32.0673 18.0244 32.3072 19.4553 32.5253 19.8209C32.6663 20.0571 33.0606 20.3996 33.3737 20.5577C33.9818 20.8646 34.4874 20.8741 35.4504 20.5964C36.7759 20.2142 37.4025 19.8156 39.5529 17.987C40.3852 17.2792 40.8219 16.6543 40.9434 15.9972C41.0058 15.6597 40.9257 15.3365 40.6901 14.9749C40.4725 14.641 39.7067 13.8976 39.3698 13.6933C39.2161 13.6002 38.9022 13.3886 38.6723 13.2232C38.4423 13.0577 38.0907 12.826 37.8911 12.7082C37.6915 12.5904 37.2994 12.3481 37.0199 12.1698C36.4755 11.8223 35.4738 11.3158 35.1566 11.2275C34.8521 11.1428 34.0196 11.1184 33.8498 11.1892ZM62.6787 11.7092C62.0418 11.7991 61.145 12.1926 60.7385 12.5602C60.255 12.9977 59.9113 13.6879 59.9133 14.2187C59.9157 15.039 60.5366 16.1268 61.3507 16.7363C62.1013 17.2984 63.2648 17.7049 64.4859 17.8318C64.8944 17.8742 65.8822 17.7792 66.5414 17.6339C67.5302 17.416 68.1284 17.052 68.4764 16.4565C68.942 15.6589 68.9139 14.9701 68.3786 14.0692C67.7519 13.0142 66.3299 12.1234 64.7274 11.7819C64.3127 11.6935 63.0959 11.6503 62.6787 11.7092ZM61.9208 19.6958C61.3594 19.8085 60.8391 20.1197 60.5812 20.4971C60.3387 20.8521 60.238 21.2578 60.2622 21.7813C60.2806 22.1731 60.3077 22.2973 60.4345 22.5682C60.6233 22.9707 60.9621 23.335 61.5757 23.7937C62.4779 24.4682 63.3147 24.7756 64.2512 24.7762C65.0517 24.7768 65.646 24.5257 66.1634 23.9684C66.9504 23.1204 66.9092 21.8978 66.0647 21.0568C65.5071 20.5012 64.5145 19.9498 63.6917 19.7385C63.3113 19.6407 62.3148 19.6167 61.9208 19.6958ZM58.4361 25.2285C58.1124 25.3358 57.9454 25.4422 57.7871 25.6424C57.3181 26.2347 57.2843 26.9975 57.6956 27.7248C57.7799 27.8735 58.0243 28.1709 58.2392 28.3858C58.5673 28.7141 58.711 28.8167 59.1379 29.0271C60.0551 29.4794 61.0588 29.6375 61.7611 29.4405C62.1125 29.3418 62.4251 29.0772 62.5984 28.7314C62.6681 28.5926 62.778 28.3919 62.8423 28.2854C63.0282 27.9787 63.0011 27.5243 62.7746 27.1481C62.7504 27.1081 62.701 27.0109 62.6647 26.932C62.5573 26.6993 61.7563 25.9281 61.4223 25.7363C61.2549 25.6399 60.8735 25.479 60.5753 25.3787C60.0643 25.2068 59.9936 25.1955 59.3315 25.1804C58.8398 25.1691 58.5717 25.1835 58.4361 25.2285ZM3.72865 31.6356C3.60601 31.6588 3.18949 32.0462 3.18949 32.1369C3.18949 32.1671 3.13311 32.2587 3.06424 32.3406C2.96246 32.4615 2.94436 32.5218 2.96764 32.6622C2.98341 32.7572 3.01652 33.0463 3.04115 33.3047C3.13993 34.3393 3.93947 36.9144 4.70978 38.6785C5.09407 39.5585 6.33321 42.1422 6.67669 42.7794C7.27258 43.8851 8.09646 45.1302 8.60271 45.6902C8.98438 46.1124 9.23072 46.2416 9.65068 46.2398C10.1618 46.2376 10.4443 46.0552 10.8338 45.4759C11.0781 45.1126 11.2237 44.7532 11.7683 43.1679C12.241 41.7925 12.67 40.2571 12.9651 38.8847C13.0224 38.6185 13.0804 38.368 13.094 38.3281C13.1236 38.2411 13.2145 38.4567 13.7878 39.9736C14.3229 41.3898 14.3928 41.5592 14.8149 42.4616C15.0028 42.8634 15.2861 43.497 15.4445 43.8697C15.9167 44.9806 16.108 45.2707 16.499 45.4691C16.7341 45.5884 17.1481 45.5818 17.3956 45.4549C17.8108 45.242 18.2855 44.5783 18.8974 43.3551C19.1925 42.7653 19.4914 42.2208 20.8336 39.8284C21.2872 39.0197 21.7677 38.123 22.4542 36.8035C22.9225 35.9036 23.4004 34.7898 23.5218 34.3154C23.6452 33.8334 23.645 33.1507 23.5214 32.8787C23.3392 32.4774 22.8129 32.3295 22.3755 32.5565C22.0957 32.7019 21.69 33.1596 21.2351 33.8432C20.8446 34.4299 19.8196 36.4442 19.1992 37.8441C19.0399 38.2035 18.7392 38.8577 18.5308 39.2979C18.1537 40.095 17.7946 40.9569 17.4917 41.7915C17.4042 42.0327 17.2666 42.3594 17.1859 42.5175L17.0391 42.8049L16.7491 42.2C16.5895 41.8672 16.1941 40.9525 15.8702 40.1672C15.5464 39.382 15.15 38.4563 14.9894 38.1103C14.8288 37.7642 14.6057 37.1762 14.4938 36.8035C14.3818 36.4309 14.2455 36.0062 14.1909 35.8598C14.1364 35.7134 14.0769 35.4917 14.0588 35.3671C14.0406 35.2425 13.9863 35.0901 13.938 35.0283C13.8897 34.9665 13.792 34.8009 13.721 34.6602C13.5623 34.346 13.3652 34.2147 13.0524 34.2144C12.6451 34.2141 12.3852 34.5627 12.3852 35.1092C12.3852 35.2052 12.3548 35.3426 12.3177 35.4145C12.2805 35.4864 12.0069 36.3183 11.7097 37.2633C10.8786 39.9061 10.6627 40.5453 10.2306 41.6434C10.0107 42.2024 9.76935 42.8503 9.69443 43.0832C9.61946 43.3162 9.5428 43.5067 9.52407 43.5067C9.46913 43.5067 8.78226 42.4452 8.37882 41.7367C8.1572 41.3477 6.92498 38.5453 6.43311 37.3117C6.1809 36.6793 6.07597 36.3338 5.53788 34.3636C5.2804 33.4209 5.0252 32.5305 4.97075 32.385C4.86335 32.098 4.60703 31.7807 4.3934 31.6702C4.26534 31.604 3.9749 31.5889 3.72865 31.6356ZM28.9616 32.1968C28.0517 32.5018 27.6067 32.888 26.8344 34.0432C26.3064 34.833 25.7015 36.1166 25.1005 37.7231C24.9013 38.2555 24.5804 39.0395 24.3872 39.4655C23.5141 41.3909 22.3222 44.192 22.2745 44.4306C22.22 44.7035 22.455 45.1246 22.7458 45.275C22.9214 45.3658 23.337 45.3662 23.512 45.2757C23.7599 45.1475 23.9662 44.8461 24.3416 44.0638C24.5461 43.6376 24.9044 42.8969 25.1379 42.4177C25.3715 41.9386 25.6465 41.3651 25.7492 41.1434C25.9269 40.7595 25.9423 40.7414 26.0694 40.7674C26.4138 40.8376 27.5213 40.8957 28.3898 40.8889C28.9572 40.8845 29.6938 40.9135 30.1935 40.9599C30.6582 41.0031 31.1315 41.0384 31.2453 41.0384C31.4315 41.0384 31.4553 41.0518 31.4826 41.1715C31.4992 41.2447 31.5527 41.4679 31.6013 41.6676C31.6498 41.8672 31.7466 42.3246 31.8163 42.6839C32.2623 44.9849 32.429 45.4659 32.8558 45.6837C33.2177 45.8683 33.6137 45.781 33.8556 45.4634C33.9914 45.2851 33.9949 45.2655 33.9912 44.7202C33.9851 43.8327 33.549 41.1516 33.1169 39.3445C33.0246 38.9585 32.898 38.3691 32.8357 38.0347C32.7733 37.7004 32.6346 37.1123 32.5275 36.7279C32.4204 36.3436 32.265 35.7517 32.1821 35.4125C31.9733 34.5577 31.6775 33.7189 31.4473 33.3285C30.8453 32.3075 29.9065 31.8801 28.9616 32.1968ZM57.8157 32.3C57.4024 32.4476 57.308 32.6374 57.2218 33.4986C57.1846 33.8695 57.1337 34.3075 57.1091 34.4719C57.0437 34.8994 57.0137 35.3714 56.9581 36.8519C56.9305 37.5707 56.8782 38.6487 56.8409 39.2477C56.7979 39.9475 56.7785 41.0284 56.7862 42.2726C56.7979 44.0512 56.8071 44.2384 56.8985 44.5775C56.9532 44.7804 57.035 45.0026 57.08 45.0712C57.2717 45.3637 57.9531 45.5091 58.2972 45.331C58.4889 45.2317 58.6917 44.9934 58.8093 44.7281C59.0169 44.2609 59.0508 43.909 59.0755 41.9536L59.0987 40.0858L61.0124 40.0524C62.0651 40.034 62.9357 40.0288 62.9478 40.0406C62.9595 40.0525 62.9812 41.202 62.9962 42.5951C63.0262 45.4274 63.0137 45.3275 63.3786 45.6285C63.7392 45.9258 64.1926 45.9308 64.5914 45.642C64.848 45.4562 64.9414 45.2411 64.9985 44.7041C65.0246 44.4581 65.0565 44.2269 65.0696 44.1903C65.1156 44.0573 65.2347 42.3386 65.284 41.0868C65.3682 38.9608 65.4273 37.8049 65.4849 37.1423C65.5594 36.2843 65.5662 34.2886 65.4955 34.0622C65.4142 33.802 65.1529 33.4267 64.9617 33.2959C64.7405 33.1441 64.3398 33.109 64.0581 33.2166C63.7677 33.3275 63.5727 33.5497 63.3946 33.9722C63.0059 34.8957 62.8646 35.7407 62.8646 37.1402V38.1663L61.0535 38.1625C60.0575 38.1604 59.2318 38.1475 59.2178 38.1338C59.2042 38.1201 59.2386 37.6518 59.2942 37.0932C59.3683 36.3544 59.3969 35.7148 59.3998 34.7466L59.4041 33.4157L59.2729 33.1495C59.0576 32.712 58.4439 32.2342 58.0974 32.2342C58.0441 32.2342 57.9173 32.2638 57.8157 32.3ZM37.5039 32.3317C37.2244 32.3538 36.6364 32.4047 36.1972 32.445C35.7579 32.4853 35.0511 32.5422 34.6264 32.5715C33.7909 32.6292 33.6564 32.6694 33.483 32.9129C33.3105 33.1551 33.3027 33.4808 33.4618 33.789C33.803 34.4501 34.188 34.6111 35.7587 34.75C36.112 34.7812 36.6469 34.7974 36.9473 34.7859L37.4935 34.765L37.5162 36.3651C37.5286 37.2451 37.5173 39.6458 37.4909 41.7L37.4431 45.4349L37.5485 45.6527C37.7513 46.0716 38.0784 46.2232 38.7382 46.204C39.1113 46.1932 39.1961 46.1747 39.3301 46.0747C39.8048 45.7207 39.9753 45.0161 39.985 43.3685C39.9882 42.819 39.9651 41.2042 39.9336 39.78C39.8817 37.4369 39.8568 34.6574 39.8875 34.6449C39.8942 34.6422 40.8361 34.6236 41.9808 34.6037C43.9302 34.5698 44.0818 34.5609 44.3765 34.4628C44.7056 34.3533 44.8322 34.2697 44.9709 34.0703C45.0713 33.9259 45.0813 33.5494 44.9883 33.4144C44.9522 33.3618 44.9074 33.2359 44.8888 33.1345C44.8364 32.8487 44.5786 32.5974 44.2407 32.5026C43.7521 32.3655 42.0135 32.278 39.9238 32.2852C38.8724 32.2888 37.7834 32.3098 37.5039 32.3317ZM50.4006 32.6672C49.8992 32.7187 49.3508 32.8839 48.8049 33.148C47.864 33.6033 47.0933 34.3143 46.364 35.4C45.5051 36.6785 45.2604 37.4101 45.0984 39.1838C45.0031 40.2268 45.1459 41.4556 45.4466 42.18C45.815 43.0678 46.7263 44.2175 47.5432 44.8251C47.9814 45.151 48.6694 45.4967 49.0953 45.605C49.255 45.6456 49.6035 45.7054 49.8696 45.738C50.2864 45.7889 50.4194 45.786 50.8274 45.7169C51.9929 45.5195 53.1419 44.8682 53.8761 43.9884C54.2405 43.5516 54.3566 43.3243 54.3847 42.9909C54.4355 42.3981 53.8765 41.9998 53.2846 42.2062C53.198 42.2363 52.9066 42.4441 52.6361 42.6681C51.8036 43.3572 50.9959 43.7487 50.4059 43.7487C50.0734 43.7487 49.4994 43.595 49.2734 43.4457C49.1742 43.3801 48.9191 43.1626 48.7061 42.9622C48.3931 42.6678 48.2593 42.4929 48.0071 42.0485C47.4146 41.0044 47.3047 40.5661 47.3414 39.3929C47.3712 38.4371 47.4972 37.9254 47.8924 37.1535C48.1458 36.6583 48.2204 36.5601 48.7299 36.0506C49.6412 35.1384 50.5661 34.5945 51.0752 34.6708C51.3482 34.7117 51.9101 34.9828 52.1395 35.1843C52.2392 35.2718 52.3931 35.4869 52.4817 35.6621C52.6661 36.027 52.7934 36.1612 53.061 36.273C53.3988 36.4143 53.8281 36.2751 54.0726 35.9451C54.1364 35.8594 54.1776 35.7142 54.1897 35.5337C54.2076 35.2754 54.1897 35.2154 53.9453 34.7224C53.5058 33.8341 53.1375 33.4346 52.4076 33.0545C51.7799 32.7273 51.0975 32.5957 50.4006 32.6672ZM29.6476 34.5409C29.6894 34.6408 29.7748 34.9293 29.8373 35.1822C29.8998 35.4351 30.1168 36.1211 30.3194 36.7067C30.6129 37.555 31.0185 38.9469 31.0185 39.1059C31.0185 39.1487 27.5649 39.2024 27.1034 39.1668C26.8876 39.1501 26.7111 39.1181 26.7111 39.0956C26.7111 38.95 28.1646 35.9282 28.4421 35.4968C28.6791 35.1285 29.3978 34.3594 29.505 34.3594C29.5416 34.3594 29.6057 34.4411 29.6476 34.5409Z" fill="white"/>
</svg>
