<svg width="24" height="23" viewBox="0 0 24 23" fill="none" xmlns="http://www.w3.org/2000/svg">
<circle cx="11.9706" cy="11.4706" r="10.8588" stroke="white" stroke-width="1.22353"/>
<path d="M11.2578 14H10.3203V11.4258H7.6875V14H6.75391V8.28906H7.6875V10.625H10.3203V8.28906H11.2578V14ZM17.4062 11.0898C17.4062 12.0326 17.1445 12.7539 16.6211 13.2539C16.0977 13.7513 15.3438 14 14.3594 14H12.7617V8.28906H14.5273C15.4362 8.28906 16.1432 8.53385 16.6484 9.02344C17.1536 9.51302 17.4062 10.2018 17.4062 11.0898ZM16.4219 11.1211C16.4219 9.75391 15.7826 9.07031 14.5039 9.07031H13.6953V13.2148H14.3594C15.7344 13.2148 16.4219 12.5169 16.4219 11.1211Z" fill="white"/>
<path d="M15.4264 11.0012L14.7437 11.3436L14.7406 10.5798L15.4264 11.0012Z" fill="white" stroke="white" stroke-width="0.317235" stroke-linecap="round" stroke-linejoin="round"/>
</svg>
